<svg viewBox="0 0 46 50" fill="none" xmlns="http://www.w3.org/2000/svg">
<path d="M44.9101 48.3146H43.5056V4.21348C43.5056 3.74795 43.1282 3.3708 42.6629 3.3708H26.9325C26.4671 3.3708 26.0898 3.74795 26.0898 4.21348V7.86514H24.4045V4.21348C24.4045 3.74795 24.0271 3.3708 23.5618 3.3708H19.9101V0.842676C19.9101 0.377148 19.5327 0 19.0674 0C18.602 0 18.2247 0.377148 18.2247 0.842676V3.3708H14.573C14.1076 3.3708 13.7304 3.74795 13.7304 4.21348V7.86514H11.2022C10.7368 7.86514 10.3596 8.24228 10.3596 8.70781V15.7303H3.33711C2.87168 15.7303 2.49443 16.1074 2.49443 16.5729V48.3146H1.08975C0.624316 48.3146 0.24707 48.6917 0.24707 49.1572C0.24707 49.6228 0.624414 50 1.08975 50H44.9101C45.3755 50 45.7527 49.6229 45.7527 49.1573C45.7527 48.6918 45.3754 48.3146 44.9101 48.3146ZM15.4156 5.05615H22.7189V7.86514H15.4156V5.05615ZM12.6066 48.3146H12.0448V46.9102C12.0448 46.4446 11.6675 46.0675 11.2021 46.0675C10.7368 46.0675 10.3595 46.4446 10.3595 46.9102V48.3146H9.79766V45.5057H12.6066V48.3146ZM18.2246 48.3146H14.292V44.663C14.292 44.1975 13.9146 43.8203 13.4493 43.8203H8.95498C8.48955 43.8203 8.1123 44.1975 8.1123 44.663V48.3146H4.17969V17.4157H18.2246V48.3146ZM19.0673 15.7304H12.0448V9.55059H26.0897V25.8427H19.9101V23.0337H22.4382C22.9036 23.0337 23.2809 22.6565 23.2809 22.191C23.2809 21.7255 22.9035 21.3483 22.4382 21.3483H19.9101V18.5394H22.4382C22.9036 18.5394 23.2809 18.1622 23.2809 17.6967C23.2809 17.2312 22.9035 16.854 22.4382 16.854H19.9101V16.5731C19.9101 16.1075 19.5327 15.7304 19.0673 15.7304ZM33.955 48.3146H19.9101V27.5281H33.955V48.3146ZM41.8201 48.3146H35.6403V25.5617C35.6403 25.0962 35.263 24.719 34.7977 24.719C34.3323 24.719 33.955 25.0962 33.955 25.5617V25.8426H32.2696V25.5617C32.2696 25.0962 31.8923 24.719 31.427 24.719C30.9616 24.719 30.5843 25.0962 30.5843 25.5617V25.8426H27.7753V5.05615H41.8202L41.8201 48.3146Z" fill="currentColor"/>
<path d="M23.5617 46.6294C24.0271 46.6294 24.4044 46.2521 24.4044 45.7867V30.0564C24.4044 29.5909 24.027 29.2138 23.5617 29.2138C23.0964 29.2138 22.719 29.5909 22.719 30.0564V45.7868C22.719 46.2522 23.0963 46.6294 23.5617 46.6294Z" fill="currentColor"/>
<path d="M26.9324 46.6294C27.3979 46.6294 27.7751 46.2521 27.7751 45.7867V30.0564C27.7751 29.5909 27.3978 29.2138 26.9324 29.2138C26.4671 29.2138 26.0898 29.5909 26.0898 30.0564V45.7868C26.0897 46.2522 26.467 46.6294 26.9324 46.6294Z" fill="currentColor"/>
<path d="M30.3033 46.6294C30.7687 46.6294 31.1459 46.2521 31.1459 45.7867V30.0564C31.1459 29.5909 30.7686 29.2138 30.3033 29.2138C29.8379 29.2138 29.4606 29.5909 29.4606 30.0564V45.7868C29.4606 46.2522 29.8379 46.6294 30.3033 46.6294Z" fill="currentColor"/>
<path d="M31.4268 10.6741C31.8922 10.6741 32.2695 10.297 32.2695 9.83145V8.70791C32.2695 8.24238 31.8921 7.86523 31.4268 7.86523C30.9614 7.86523 30.5841 8.24238 30.5841 8.70791V9.83154C30.5841 10.297 30.9613 10.6741 31.4268 10.6741Z" fill="currentColor"/>
<path d="M34.7977 10.6741C35.2631 10.6741 35.6404 10.297 35.6404 9.83145V8.70791C35.6404 8.24238 35.263 7.86523 34.7977 7.86523C34.3324 7.86523 33.955 8.24238 33.955 8.70791V9.83154C33.955 10.297 34.3323 10.6741 34.7977 10.6741Z" fill="currentColor"/>
<path d="M38.1684 10.6741C38.6339 10.6741 39.0111 10.297 39.0111 9.83145V8.70791C39.0111 8.24238 38.6338 7.86523 38.1684 7.86523C37.7031 7.86523 37.3258 8.24238 37.3258 8.70791V9.83154C37.3258 10.297 37.703 10.6741 38.1684 10.6741Z" fill="currentColor"/>
<path d="M31.4268 16.2921C31.8922 16.2921 32.2695 15.9149 32.2695 15.4494V14.3258C32.2695 13.8603 31.8921 13.4831 31.4268 13.4831C30.9614 13.4831 30.5841 13.8603 30.5841 14.3258V15.4494C30.5841 15.9149 30.9613 16.2921 31.4268 16.2921Z" fill="currentColor"/>
<path d="M34.7977 16.2921C35.2631 16.2921 35.6404 15.9149 35.6404 15.4494V14.3258C35.6404 13.8603 35.263 13.4831 34.7977 13.4831C34.3324 13.4831 33.955 13.8603 33.955 14.3258V15.4494C33.955 15.9149 34.3323 16.2921 34.7977 16.2921Z" fill="currentColor"/>
<path d="M38.1684 16.2921C38.6339 16.2921 39.0111 15.9149 39.0111 15.4494V14.3258C39.0111 13.8603 38.6338 13.4831 38.1684 13.4831C37.7031 13.4831 37.3258 13.8603 37.3258 14.3258V15.4494C37.3258 15.9149 37.703 16.2921 38.1684 16.2921Z" fill="currentColor"/>
<path d="M31.4268 21.9102C31.8922 21.9102 32.2695 21.533 32.2695 21.0675V19.9438C32.2695 19.4783 31.8921 19.1012 31.4268 19.1012C30.9614 19.1012 30.5841 19.4783 30.5841 19.9438V21.0675C30.5841 21.5329 30.9613 21.9102 31.4268 21.9102Z" fill="currentColor"/>
<path d="M34.7977 21.9102C35.2631 21.9102 35.6404 21.533 35.6404 21.0675V19.9438C35.6404 19.4783 35.263 19.1012 34.7977 19.1012C34.3324 19.1012 33.955 19.4783 33.955 19.9438V21.0675C33.955 21.5329 34.3323 21.9102 34.7977 21.9102Z" fill="currentColor"/>
<path d="M38.1684 21.9102C38.6339 21.9102 39.0111 21.533 39.0111 21.0675V19.9438C39.0111 19.4783 38.6338 19.1012 38.1684 19.1012C37.7031 19.1012 37.3258 19.4783 37.3258 19.9438V21.0675C37.3258 21.5329 37.703 21.9102 38.1684 21.9102Z" fill="currentColor"/>
<path d="M7.83137 24.1573C8.2968 24.1573 8.67405 23.7802 8.67405 23.3146V22.191C8.67405 21.7255 8.29671 21.3483 7.83137 21.3483C7.36604 21.3483 6.9887 21.7255 6.9887 22.191V23.3146C6.9887 23.7801 7.36604 24.1573 7.83137 24.1573Z" fill="currentColor"/>
<path d="M11.2021 24.1573C11.6676 24.1573 12.0448 23.7802 12.0448 23.3146V22.191C12.0448 21.7255 11.6675 21.3483 11.2021 21.3483C10.7368 21.3483 10.3595 21.7255 10.3595 22.191V23.3146C10.3595 23.7801 10.7367 24.1573 11.2021 24.1573Z" fill="currentColor"/>
<path d="M14.5729 24.1573C15.0383 24.1573 15.4155 23.7802 15.4155 23.3146V22.191C15.4155 21.7255 15.0382 21.3483 14.5729 21.3483C14.1075 21.3483 13.7302 21.7255 13.7302 22.191V23.3146C13.7302 23.7801 14.1074 24.1573 14.5729 24.1573Z" fill="currentColor"/>
<path d="M7.83137 29.7753C8.2968 29.7753 8.67405 29.3981 8.67405 28.9326V27.809C8.67405 27.3435 8.29671 26.9663 7.83137 26.9663C7.36604 26.9663 6.9887 27.3435 6.9887 27.809V28.9326C6.9887 29.398 7.36604 29.7753 7.83137 29.7753Z" fill="currentColor"/>
<path d="M11.2021 29.7753C11.6676 29.7753 12.0448 29.3981 12.0448 28.9326V27.809C12.0448 27.3435 11.6675 26.9663 11.2021 26.9663C10.7368 26.9663 10.3595 27.3435 10.3595 27.809V28.9326C10.3595 29.398 10.7367 29.7753 11.2021 29.7753Z" fill="currentColor"/>
<path d="M14.5729 29.7753C15.0383 29.7753 15.4155 29.3981 15.4155 28.9326V27.809C15.4155 27.3435 15.0382 26.9663 14.5729 26.9663C14.1075 26.9663 13.7302 27.3435 13.7302 27.809V28.9326C13.7302 29.398 14.1074 29.7753 14.5729 29.7753Z" fill="currentColor"/>
<path d="M7.83137 35.3933C8.2968 35.3933 8.67405 35.0161 8.67405 34.5506V33.427C8.67405 32.9614 8.29671 32.5843 7.83137 32.5843C7.36604 32.5843 6.9887 32.9614 6.9887 33.427V34.5506C6.9887 35.0161 7.36604 35.3933 7.83137 35.3933Z" fill="currentColor"/>
<path d="M11.2021 35.3933C11.6676 35.3933 12.0448 35.0161 12.0448 34.5506V33.427C12.0448 32.9614 11.6675 32.5843 11.2021 32.5843C10.7368 32.5843 10.3595 32.9614 10.3595 33.427V34.5506C10.3595 35.0161 10.7367 35.3933 11.2021 35.3933Z" fill="currentColor"/>
<path d="M14.5729 35.3933C15.0383 35.3933 15.4155 35.0161 15.4155 34.5506V33.427C15.4155 32.9614 15.0382 32.5843 14.5729 32.5843C14.1075 32.5843 13.7302 32.9614 13.7302 33.427V34.5506C13.7302 35.0161 14.1074 35.3933 14.5729 35.3933Z" fill="currentColor"/>
<path d="M7.83137 41.0112C8.2968 41.0112 8.67405 40.6341 8.67405 40.1686V39.0449C8.67405 38.5794 8.29671 38.2022 7.83137 38.2022C7.36604 38.2022 6.9887 38.5794 6.9887 39.0449V40.1686C6.9887 40.6341 7.36604 41.0112 7.83137 41.0112Z" fill="currentColor"/>
<path d="M11.2021 41.0112C11.6676 41.0112 12.0448 40.6341 12.0448 40.1686V39.0449C12.0448 38.5794 11.6675 38.2022 11.2021 38.2022C10.7368 38.2022 10.3595 38.5794 10.3595 39.0449V40.1686C10.3595 40.6341 10.7367 41.0112 11.2021 41.0112Z" fill="currentColor"/>
<path d="M14.5729 41.0112C15.0383 41.0112 15.4155 40.6341 15.4155 40.1686V39.0449C15.4155 38.5794 15.0382 38.2022 14.5729 38.2022C14.1075 38.2022 13.7302 38.5794 13.7302 39.0449V40.1686C13.7302 40.6341 14.1074 41.0112 14.5729 41.0112Z" fill="currentColor"/>
<path d="M38.1684 27.5281C38.6339 27.5281 39.0111 27.151 39.0111 26.6854V25.5618C39.0111 25.0963 38.6338 24.7191 38.1684 24.7191C37.7031 24.7191 37.3258 25.0963 37.3258 25.5618V26.6854C37.3258 27.1509 37.703 27.5281 38.1684 27.5281Z" fill="currentColor"/>
<path d="M38.1684 33.1461C38.6339 33.1461 39.0111 32.7689 39.0111 32.3034V31.1798C39.0111 30.7143 38.6338 30.3371 38.1684 30.3371C37.7031 30.3371 37.3258 30.7143 37.3258 31.1798V32.3034C37.3258 32.7688 37.703 33.1461 38.1684 33.1461Z" fill="currentColor"/>
<path d="M38.1684 38.7641C38.6339 38.7641 39.0111 38.3869 39.0111 37.9214V36.7978C39.0111 36.3322 38.6338 35.9551 38.1684 35.9551C37.7031 35.9551 37.3258 36.3322 37.3258 36.7978V37.9214C37.3258 38.3868 37.703 38.7641 38.1684 38.7641Z" fill="currentColor"/>
<path d="M38.1684 44.382C38.6339 44.382 39.0111 44.0049 39.0111 43.5394V42.4157C39.0111 41.9502 38.6338 41.573 38.1684 41.573C37.7031 41.573 37.3258 41.9502 37.3258 42.4157V43.5394C37.3258 44.0048 37.703 44.382 38.1684 44.382Z" fill="currentColor"/>
<path d="M23.2808 13.2022C23.2808 12.7367 22.9034 12.3596 22.4381 12.3596H15.6965C15.2311 12.3596 14.8538 12.7367 14.8538 13.2022C14.8538 13.6678 15.2312 14.0449 15.6965 14.0449H22.4381C22.9035 14.0449 23.2808 13.6678 23.2808 13.2022Z" fill="currentColor"/>
</svg>
