<svg width="42" height="60" viewBox="0 0 42 60" fill="none" xmlns="http://www.w3.org/2000/svg">
<path d="M41.2475 53.0938V59.0001C41.2475 59.5523 40.7998 60 40.2476 60C39.6954 60 39.2478 59.5523 39.2478 59.0001V53.0938C39.2478 48.495 35.5264 44.7734 30.9272 44.7735C28.7511 44.7735 26.7768 43.6649 25.6455 41.8079C25.3583 41.3363 25.5077 40.721 25.9794 40.4338C26.4509 40.1465 27.0661 40.296 27.3534 40.7677C28.1186 42.0239 29.4545 42.7738 30.9272 42.7738C36.6311 42.7735 41.2475 47.3894 41.2475 53.0938V53.0938ZM23.799 43.071C23.9166 43.6105 23.5746 44.1432 23.035 44.2608C20.4036 44.8341 17.7273 44.2602 15.5965 42.8058C13.487 45.0663 10.7001 44.7735 11.0732 44.7735C6.47443 44.7734 2.75267 48.4946 2.75267 53.0938V59.0001C2.75267 59.5523 2.30498 60 1.7528 60C1.20062 60 0.75293 59.5523 0.75293 59.0001V53.0938C0.75293 47.39 5.36845 42.7738 11.073 42.7738C13.3804 42.7738 15.251 40.9146 15.251 38.6066V38.3432C10.8867 36.2564 7.82338 31.8711 7.63665 26.7644C5.84064 26.3325 4.50244 24.725 4.50244 22.8124V17.6289C4.44782 15.0918 4.82452 8.73723 9.45779 4.27107C15.1789 -1.24396 24.3537 -0.89363 31.1001 2.35407C31.7576 2.6709 31.8575 3.55929 31.3114 4.01935C34.7291 4.85299 37.6762 6.95397 39.5696 9.96082C39.6673 10.1157 39.8463 10.3588 39.7996 10.7466C39.7706 10.9879 39.6987 11.1922 39.5127 11.3809C38.2941 12.6167 37.6231 14.2544 37.6231 15.9923V22.8126C37.6231 23.3648 37.1754 23.8125 36.6232 23.8125C36.071 23.8125 35.6234 23.3648 35.6234 22.8126V15.9923C35.6234 13.9879 36.3081 12.0854 37.5658 10.5571C35.6488 7.81548 32.658 6.05221 29.2754 5.69001L27.518 5.50178C26.4904 5.3918 26.2888 3.97611 27.2438 3.58303L28.0431 3.25395C17.6337 -0.374948 6.50205 3.65715 6.50205 17.6181V22.8124C6.50205 23.6058 6.95899 24.2953 7.6269 24.6416V18.1596C7.6269 14.3004 10.7667 11.1605 14.626 11.1605H27.3743C31.2336 11.1605 34.3734 14.3001 34.3734 18.1592V26.346C34.3734 35.0417 25.876 41.6465 17.2294 39.101C17.1731 39.8144 16.9955 40.5028 16.7062 41.1427C18.3882 42.2978 20.5123 42.7638 22.6092 42.3068C23.1487 42.1893 23.6814 42.5314 23.799 43.071V43.071ZM21.0001 37.6436C27.2716 37.6436 32.3737 32.5415 32.3737 26.2701V18.1592C32.3737 15.4029 30.1309 13.1603 27.3743 13.1603H14.626C11.8693 13.1603 9.62664 15.403 9.62664 18.1596V26.2701C9.62664 32.5415 14.7287 37.6436 21.0001 37.6436ZM31.1238 54.8757H28.1242C27.572 54.8757 27.1243 55.3234 27.1243 55.8755C27.1243 56.4277 27.572 56.8754 28.1242 56.8754H31.1238C31.676 56.8754 32.1237 56.4277 32.1237 55.8755C32.1237 55.3234 31.676 54.8757 31.1238 54.8757Z" fill="currentColor"/>
</svg>
