<svg viewBox="0 0 25 25" fill="none" xmlns="http://www.w3.org/2000/svg">
<path d="M3.09698 16.7519C4.75961 18.4164 6.9737 19.4156 9.32216 19.5613C11.6706 19.707 13.9913 18.9891 15.847 17.5429L22.2323 23.9263C22.4587 24.1449 22.762 24.2659 23.0768 24.2632C23.3917 24.2605 23.6928 24.1342 23.9154 23.9117C24.138 23.6891 24.2643 23.3881 24.267 23.0733C24.2698 22.7586 24.1488 22.4554 23.93 22.229L17.5448 15.8457C19.0556 13.9073 19.7699 11.4658 19.542 9.01909C19.3141 6.57236 18.1611 4.3047 16.3183 2.67857C14.4754 1.05244 12.0815 0.19034 9.62469 0.26808C7.16788 0.34582 4.83327 1.35755 3.09698 3.09693C2.19982 3.99337 1.48813 5.05773 1.00257 6.22921C0.51701 7.4007 0.26709 8.65635 0.26709 9.92442C0.26709 11.1925 0.51701 12.4481 1.00257 13.6196C1.48813 14.7911 2.19982 15.8555 3.09698 16.7519V16.7519ZM4.79474 4.7966C5.98171 3.61001 7.5435 2.87156 9.21401 2.70706C10.8845 2.54256 12.5604 2.96219 13.9562 3.89446C15.3519 4.82673 16.3811 6.21395 16.8685 7.81978C17.3558 9.4256 17.2711 11.1507 16.6289 12.7011C15.9866 14.2515 14.8265 15.5313 13.3462 16.3225C11.8658 17.1137 10.1569 17.3673 8.51052 17.0401C6.86414 16.7129 5.38217 15.8252 4.31711 14.5281C3.25204 13.231 2.66978 11.6049 2.66953 9.92682C2.66624 8.97325 2.8524 8.02851 3.21722 7.14743C3.58204 6.26635 4.11825 5.46647 4.79474 4.7942V4.7966Z" fill="currentColor"/>
</svg>
