<svg viewBox="0 0 48 60" fill="none" xmlns="http://www.w3.org/2000/svg">
<path d="M45.6467 46.1421L43.2126 48.5762C43.89 49.9658 44.2497 51.5013 44.2497 53.0927V58.9998C44.2497 59.552 43.802 59.9997 43.2497 59.9997C42.6975 59.9997 42.2497 59.552 42.2497 58.9998V53.0927C42.2497 48.7158 38.8847 45.1472 34.6135 44.8012L30.461 59.2755C30.3351 59.7143 29.935 60 29.5003 60C28.8354 60 28.3554 59.3625 28.5385 58.724L32.5838 44.6237C30.9566 44.2671 29.5383 43.2706 28.6459 41.8055C28.3585 41.3338 28.508 40.7186 28.9796 40.4312C29.4511 40.1437 30.0665 40.2933 30.3539 40.765C31.0813 41.9591 32.3248 42.6944 33.7106 42.7643C33.8347 42.7436 33.9642 42.7462 34.0936 42.7753C37.2159 42.8242 40.1575 44.2557 42.131 46.8294L44.2325 44.7279C45.0485 43.9119 45.1246 42.6134 44.4095 41.7077C42.8237 39.7005 43.2268 37.2721 44.7472 35.8386C45.6011 35.0336 45.6977 33.6836 44.9671 32.7652L43.5276 30.9556C42.661 29.8661 42.3787 28.4185 42.7727 27.0831L43.7033 23.9294C44.035 22.8055 43.4673 21.6229 42.3831 21.1787L41.1548 20.6754C39.542 20.0144 38.4997 18.4615 38.4997 16.7191V13.5004C38.4997 7.15884 33.3409 1.99999 26.9998 1.99999H20.9998C14.6587 1.99999 9.49985 7.15909 9.49985 13.5004V16.7191C9.49985 18.4615 8.45773 20.0144 6.84486 20.6754L5.61649 21.1787C4.53225 21.6229 3.96475 22.8055 4.29625 23.9294L5.22687 27.0831C5.62087 28.4185 5.33874 29.8661 4.472 30.9556L3.0325 32.7652C2.30201 33.6836 2.39863 35.0335 3.25238 35.8386C4.77537 37.2745 5.17399 39.7023 3.58988 41.708C2.87488 42.6136 2.951 43.9119 3.767 44.7279L5.86849 46.8294C7.80323 44.3063 10.7693 42.7713 14.0711 42.7713C16.3789 42.7713 18.2497 40.9117 18.2497 38.6037V38.341C14.1163 36.3728 11.3521 32.4739 10.7505 28.1064C10.6751 27.5593 11.0576 27.0546 11.6046 26.9793C12.1515 26.9038 12.6563 27.2864 12.7317 27.8334C13.5018 33.4244 18.3459 37.6405 23.9997 37.6405C30.2719 37.6405 35.3746 32.5377 35.3746 26.2655V20.1009C33.0368 19.2535 30.9975 17.6237 29.6654 15.3454C24.843 20.9479 17.9573 24.2071 10.6647 24.499C10.1141 24.5213 9.64772 24.0925 9.6256 23.5398C9.60347 22.9879 10.033 22.5227 10.5848 22.5007C17.7862 22.2127 24.5714 18.8027 29.0796 12.8933C29.5506 12.2757 30.5178 12.4093 30.8041 13.1309C31.8539 15.7756 34.0584 17.6771 36.648 18.4129C37.029 18.5197 37.338 18.8633 37.3709 19.2989C37.3771 19.3809 37.3756 26.3276 37.3742 26.3703C37.306 35.1827 28.7966 41.612 20.2287 39.0955C20.0987 40.7523 19.3099 42.3122 17.9362 43.4157L23.9997 48.11L27.5659 45.3492C28.0029 45.0111 28.6308 45.0912 28.9688 45.5277C29.3069 45.9644 29.2269 46.5926 28.7903 46.9306L24.9997 49.8652V56.9998C24.9997 57.552 24.5519 57.9998 23.9997 57.9998C23.4474 57.9998 22.9997 57.552 22.9997 56.9998V49.8653L16.0167 44.4592C14.9321 44.8169 13.9761 44.7714 14.0713 44.7714C9.4721 44.7713 5.74974 48.493 5.74974 53.0928V58.9998C5.74974 59.552 5.30199 59.9997 4.74975 59.9997C4.1975 59.9997 3.74975 59.552 3.74975 58.9998V53.0927C3.74975 51.5013 4.1095 49.9658 4.78687 48.5762L2.35276 46.1421C0.928387 44.7177 0.552264 42.3268 2.10538 40.3603C2.84175 39.4276 2.745 38.1091 1.88013 37.2937C0.27614 35.7814 0.0947656 33.2454 1.46713 31.5201L2.90663 29.7104C3.368 29.1305 3.51813 28.3599 3.30838 27.649L2.37776 24.4953C1.75476 22.3839 2.821 20.1624 4.85787 19.3278L6.08624 18.8245C6.94474 18.4728 7.49948 17.6462 7.49948 16.7189V13.5003C7.49998 6.05635 13.5561 0 20.9999 0H26.9999C34.4437 0 40.4998 6.0561 40.4998 13.4999V16.7191C40.4998 17.6463 41.0546 18.4729 41.9132 18.8248L43.1415 19.3279C45.1785 20.1625 46.2447 22.384 45.6217 24.4954L44.6911 27.6491C44.4813 28.36 44.6315 29.1306 45.0928 29.7105L46.5323 31.5201C47.9047 33.2454 47.7232 35.7815 46.1193 37.2937C45.2545 38.1091 45.1577 39.4276 45.8942 40.3606C47.4216 42.2939 47.0979 44.6909 45.6467 46.1421V46.1421ZM16.4623 48.103C16.3122 47.5716 15.7597 47.2621 15.2282 47.4124C14.6967 47.5626 14.3875 48.1151 14.5376 48.6465L17.5376 59.2715C17.6877 59.8031 18.2403 60.1121 18.7717 59.9621C19.3032 59.812 19.6124 59.2595 19.4623 58.728L16.4623 48.103Z" fill="currentColor"/>
</svg>
