<svg viewBox="0 0 200 200" fill="none" xmlns="http://www.w3.org/2000/svg">
<path d="M100 0C44.8602 0 0 44.8602 0 100C0 155.14 44.8602 200 100 200C155.14 200 200 155.14 200 100C200 44.8602 155.141 0 100 0ZM100 187.211C51.912 187.211 12.7892 148.089 12.7892 100C12.7892 51.9113 51.912 12.7892 100 12.7892C148.088 12.7892 187.211 51.912 187.211 100C187.211 148.088 148.088 187.211 100 187.211Z" fill="black"/>
<path d="M100 46.4148C81.5253 46.4148 66.4945 61.4449 66.4945 79.9203C66.4945 83.4522 69.3571 86.3149 72.8891 86.3149C76.421 86.3149 79.2837 83.4522 79.2837 79.9203C79.2837 68.4974 88.5771 59.2039 100 59.2039C111.423 59.2039 120.716 68.4974 120.716 79.9203C120.716 91.3431 111.423 100.637 100 100.637C96.4681 100.637 93.6054 103.499 93.6054 107.031V131.616C93.6054 135.147 96.4681 138.01 100 138.01C103.532 138.01 106.395 135.147 106.395 131.616V112.814C121.821 109.82 133.506 96.2087 133.506 79.9203C133.506 61.4449 118.475 46.4148 100 46.4148Z" fill="black"/>
<path d="M100 147.903C98.3161 147.903 96.6677 148.585 95.4812 149.771C94.2875 150.965 93.6054 152.613 93.6054 154.297C93.6054 155.981 94.2875 157.629 95.4812 158.815C96.6677 160.01 98.3161 160.692 100 160.692C101.684 160.692 103.332 160.01 104.519 158.815C105.712 157.629 106.395 155.981 106.395 154.297C106.395 152.613 105.712 150.965 104.519 149.771C103.332 148.585 101.684 147.903 100 147.903Z" fill="black"/>
</svg>
