<svg width="200" height="200" viewBox="0 0 200 200" fill="none" xmlns="http://www.w3.org/2000/svg">
<path d="M30.1999 125C41.7393 136.556 57.1063 143.493 73.4057 144.504C89.7051 145.516 105.812 140.532 118.692 130.492L163.008 174.808C164.58 176.326 166.685 177.166 168.87 177.147C171.055 177.128 173.145 176.252 174.69 174.707C176.235 173.162 177.112 171.072 177.131 168.887C177.149 166.702 176.31 164.597 174.792 163.025L130.475 118.708C140.961 105.251 145.918 88.3012 144.336 71.3147C142.755 54.3282 134.753 38.5849 121.962 27.2955C109.172 16.0061 92.5568 10.0209 75.5054 10.5606C58.454 11.1003 42.2506 18.1243 30.1999 30.2C23.9732 36.4235 19.0337 43.8129 15.6637 51.9459C12.2937 60.079 10.5591 68.7963 10.5591 77.6C10.5591 86.4036 12.2937 95.1209 15.6637 103.254C19.0337 111.387 23.9732 118.776 30.1999 125V125ZM41.9832 42C50.2213 33.762 61.0609 28.6353 72.6551 27.4933C84.2493 26.3512 95.8808 29.2645 105.568 35.7368C115.255 42.2091 122.398 51.8399 125.781 62.9884C129.163 74.1369 128.576 86.1133 124.118 96.8771C119.66 107.641 111.608 116.526 101.334 122.019C91.0601 127.512 79.1993 129.272 67.7726 127.001C56.3458 124.729 46.0602 118.566 38.6682 109.561C31.2761 100.556 27.235 89.2669 27.2332 77.6166C27.2103 70.9964 28.5024 64.4376 31.0344 58.3206C33.5665 52.2037 37.288 46.6505 41.9832 41.9833V42Z" fill="#272E79"/>
</svg>
